# xmcd
#
# Track frame offsets: 
#        150
#        27851
#        49992
#        65203
#        84956
#        108155
#        125143
#        151187
#        177401
#        199609
#        218900
#        234808
#        255056
#        275692
#        305799
#        324602
#        348446
#
# Disc length: 4742 seconds
#
# Revision: 0
# Processed by: cddbd v1.5.2PL0 Copyright (c) Steve Scherf et al.
# Submitted via: ExactAudioCopy v0.95b3
#
DISCID=f1128411
DTITLE=Whitesnake  - 30th Anniversary Collection - Disc 3
DYEAR=1900
DGENRE=
TTITLE0=Slow An' Easy
TTITLE1=Shake My Tree (Performed By Coverdale,Page)
TTITLE2=Guilty Of Love
TTITLE3=The Deeper The Love
TTITLE4=Blindman
TTITLE5=Love To Keep You Warm
TTITLE6=Love Is Blind (Performed By David Coverdale and Whitesnake)
TTITLE7=Ain't Gonna Cry No More
TTITLE8=Slave (Performed By David Coverdale)
TTITLE9=Lonely Days, Lonely Nights
TTITLE10=Give Me All Your Love
TTITLE11=Till The Day I Die
TTITLE12=Here I Go Again '87
TTITLE13=Still Of The Night
TTITLE14=If You Want Me
TTITLE15=Best Years
TTITLE16=We Wish You Well
EXTD=
EXTT0=
EXTT1=
EXTT2=
EXTT3=
EXTT4=
EXTT5=
EXTT6=
EXTT7=
EXTT8=
EXTT9=
EXTT10=
EXTT11=
EXTT12=
EXTT13=
EXTT14=
EXTT15=
EXTT16=
PLAYORDER=
